<?xml version="1.0" encoding="UTF-8"?>
<svg version="1.1" xmlns="http://www.w3.org/2000/svg" width="1024" height="1024">
<path d="M0 0 C337.92 0 675.84 0 1024 0 C1024 337.92 1024 675.84 1024 1024 C686.08 1024 348.16 1024 0 1024 C0 686.08 0 348.16 0 0 Z " fill="#0E0E0E" transform="translate(0,0)"/>
<path d="M0 0 C1.13475028 -0.00170885 2.26950055 -0.0034177 3.4386372 -0.00517833 C7.22493924 -0.0084615 11.01106242 0.00251129 14.79734802 0.01345825 C17.51785392 0.01513789 20.23835637 0.01379328 22.9588623 0.01257324 C28.80770263 0.01152705 34.65649816 0.01777575 40.50532722 0.02904892 C48.96163457 0.04533715 57.41792037 0.05051532 65.8742417 0.0530249 C79.59569305 0.0573968 93.31712055 0.07069217 107.03855896 0.08963013 C120.36375306 0.10800202 133.68894068 0.12215211 147.0141449 0.13064575 C147.83619117 0.1311712 148.65823743 0.13169665 149.50519419 0.13223802 C153.62936211 0.13484818 157.75353007 0.13737558 161.87769806 0.13986182 C196.06504718 0.16057858 230.25235193 0.19743984 264.43968201 0.24050903 C264.43968201 32.91050903 264.43968201 65.58050903 264.43968201 99.24050903 C188.20968201 99.24050903 111.97968201 99.24050903 33.43968201 99.24050903 C33.43968201 116.40050903 33.43968201 133.56050903 33.43968201 151.24050903 C41.56996033 151.22479858 41.56996033 151.22479858 49.86448669 151.20877075 C67.78176465 151.17561685 85.69904383 151.1534317 103.61634445 151.13688469 C114.47853411 151.12658592 125.34069464 151.11255239 136.2028656 151.08963013 C145.67379567 151.06965336 155.14470463 151.05678243 164.61565518 151.05233204 C169.62728314 151.04973192 174.63885074 151.04364975 179.65045929 151.02904892 C184.37490469 151.01539722 189.09926531 151.01130164 193.82372856 151.01429367 C195.55057932 151.01374689 197.27743314 151.00981491 199.00426674 151.00209808 C220.36422852 150.91138866 237.16971253 154.51357597 253.18968201 169.49050903 C262.68724277 179.37333241 268.53200551 193.66120649 268.58685303 207.35949707 C268.59758598 209.20523315 268.59758598 209.20523315 268.60853577 211.08825684 C268.61137574 212.4441831 268.61408751 213.80010963 268.61668396 215.15603638 C268.62295388 216.59054731 268.62960114 218.02505663 268.63659668 219.45956421 C268.65758918 224.16518026 268.66799947 228.87079643 268.67796326 233.57644653 C268.68201361 235.202216 268.68613061 236.8279853 268.69031334 238.45375443 C268.70936009 246.09919432 268.72358818 253.74462463 268.73192531 261.39008367 C268.74167453 270.18315638 268.76793537 278.97597581 268.8084262 287.7689594 C268.83872126 294.58452693 268.85340707 301.40002244 268.85670632 308.21565592 C268.85904296 312.27668112 268.86781963 316.33743563 268.8931675 320.39838791 C268.91668683 324.2283711 268.92058736 328.05791001 268.91040611 331.88794708 C268.90991626 333.28136562 268.91607091 334.67480782 268.92996216 336.0681572 C269.04754643 348.57893506 267.16522736 360.79902114 260.62718201 371.67800903 C260.28606384 372.24729126 259.94494568 372.81657349 259.5934906 373.40310669 C256.74058767 378.03923882 253.56972347 382.64625673 249.43968201 386.24050903 C248.77968201 386.24050903 248.11968201 386.24050903 247.43968201 386.24050903 C247.43968201 386.90050903 247.43968201 387.56050903 247.43968201 388.24050903 C245.40781259 389.79106605 243.40296372 391.18415097 241.25218201 392.55300903 C240.3106427 393.15532349 240.3106427 393.15532349 239.3500824 393.76980591 C230.56057406 399.22073206 220.88173749 403.36819476 210.40472698 403.36355686 C209.40897079 403.36554791 208.4132146 403.36753896 207.38728398 403.36959034 C206.30070982 403.3666775 205.21413566 403.36376466 204.09463501 403.36076355 C202.93471757 403.36161797 201.77480013 403.3624724 200.57973367 403.36335272 C197.36437001 403.36471472 194.14904669 403.36159062 190.93368781 403.35657465 C187.46475897 403.35225542 183.99583201 403.35371763 180.52690125 403.35447693 C174.51812482 403.35500123 168.50935925 403.35186423 162.50058556 403.34623909 C153.81291249 403.33811138 145.12524468 403.33550756 136.43756822 403.3342511 C122.34232258 403.33206258 108.24708272 403.32540791 94.15184021 403.31594849 C80.45978321 403.3067692 66.76772779 403.29969089 53.07566833 403.29544067 C52.2316622 403.29517795 51.38765607 403.29491523 50.518074 403.29464454 C46.28393502 403.2933395 42.04979602 403.2920758 37.81565702 403.29083264 C2.69032687 403.28046626 -32.43499256 403.2620313 -67.56031799 403.24050903 C-67.56031799 370.24050903 -67.56031799 337.24050903 -67.56031799 303.24050903 C9.65968201 303.24050903 86.87968201 303.24050903 166.43968201 303.24050903 C166.43968201 286.41050903 166.43968201 269.58050903 166.43968201 252.24050903 C161.44883484 252.24574585 156.45798767 252.25098267 151.31590271 252.25637817 C134.80758788 252.27296403 118.29927272 252.28405129 101.79095173 252.29232121 C91.78412767 252.29746788 81.77731153 252.30447943 71.77049255 252.31594849 C63.04410696 252.3259452 54.31772711 252.3323743 45.59133595 252.33459753 C40.97484736 252.33589619 36.35837517 252.33892824 31.74189186 252.34623909 C27.3876295 252.35307814 23.03339015 252.35511011 18.67912292 252.35361671 C17.089763 252.35388952 15.50040222 252.35584751 13.91104698 252.35971451 C-11.34268802 252.41809142 -30.88205908 249.5282817 -49.56031799 231.24050903 C-50.11461487 230.72230591 -50.66891174 230.20410278 -51.24000549 229.67019653 C-54.88226096 225.90981386 -57.27330676 221.41185207 -59.68531799 216.80300903 C-60.01032288 216.20158081 -60.33532776 215.60015259 -60.67018127 214.98049927 C-68.64118152 199.01621077 -68.16355048 182.16348813 -68.09762001 164.75826311 C-68.087343 161.18595778 -68.09692614 157.61368922 -68.10316467 154.04138184 C-68.11040094 148.04518137 -68.10096215 142.04917924 -68.08180237 136.05300903 C-68.06006121 129.17053214 -68.06708101 122.28852996 -68.08910799 115.40606463 C-68.10740183 109.44623371 -68.10975227 103.4865437 -68.09935331 97.5266937 C-68.09319174 93.98947425 -68.09207502 90.45247602 -68.10549927 86.91527176 C-68.18904746 61.36005501 -66.71303399 37.61266277 -47.72828674 18.38504028 C-33.96208108 5.68424362 -18.50236045 -0.1028828 0 0 Z " fill="#F8F7F6" transform="translate(226.56031799316406,300.7594909667969)"/>
<path d="M0 0 C1.18076614 -0.00073013 2.36153229 -0.00146027 3.57807922 -0.00221252 C6.81164354 0.00067291 10.04412411 0.02573548 13.2774725 0.06065726 C16.65801719 0.09192719 20.03858349 0.09485196 23.41925049 0.1007843 C29.81898774 0.11632105 36.21829762 0.15734662 42.61784673 0.20753175 C49.90431838 0.26343096 57.19081051 0.29091306 64.47744322 0.31600893 C79.46469241 0.36826309 94.45154173 0.45620148 109.43847656 0.56762695 C108.08856252 3.32291111 106.66638343 5.78271371 104.85644531 8.26293945 C104.343479 8.96926514 103.8305127 9.67559082 103.30200195 10.40332031 C102.74891357 11.1587915 102.1958252 11.9142627 101.62597656 12.69262695 C100.44097051 14.32145302 99.25607777 15.95036153 98.07128906 17.5793457 C97.1629834 18.82530518 97.1629834 18.82530518 96.23632812 20.09643555 C94.01049502 23.15589817 91.80009632 26.2262862 89.59033203 29.29736328 C82.86369574 38.64129138 76.04677433 47.91699655 69.20458984 57.17651367 C66.27891562 61.13753846 63.35890378 65.10273289 60.43847656 69.06762695 C56.92958732 73.83144166 53.41949854 78.59434494 49.90332031 83.3527832 C43.59480442 91.89434806 37.32771592 100.4631402 31.12182617 109.07958984 C27.3082341 114.372337 23.46058979 119.6387998 19.59521484 124.89379883 C16.07764269 129.68185167 12.59813577 134.49657136 9.12597656 139.31762695 C4.60239033 145.59679546 0.03731579 151.84337991 -4.56152344 158.06762695 C-9.27102368 164.44754039 -13.96593335 170.83755163 -18.62402344 177.25512695 C-19.14802734 177.97313477 -19.67203125 178.69114258 -20.21191406 179.4309082 C-23.53625577 184.02391847 -26.61921211 188.7211329 -29.56152344 193.56762695 C-28.34270803 195.29428211 -27.12388489 197.02093181 -25.9050293 198.74755859 C-24.82759074 200.27399866 -23.75028306 201.8005311 -22.6730957 203.32714844 C-19.94487446 207.19328093 -17.2150105 211.05821588 -14.47949219 214.91918945 C-9.16462591 222.42544001 -3.90030143 229.96198962 1.29638672 237.55053711 C6.1057274 244.56236655 11.01593339 251.50186492 15.93115234 258.43969727 C25.74911419 272.29997512 35.49658114 286.20907096 45.22949219 300.12915039 C47.00718769 302.6713521 48.78520084 305.21333108 50.56347656 307.75512695 C51.14742187 308.58979492 51.73136719 309.42446289 52.33300781 310.28442383 C55.97932085 315.49285978 59.64120759 320.68997023 63.31347656 325.88012695 C68.70395663 333.50121309 74.03528261 341.16284023 79.36230469 348.82836914 C92.01159733 367.03284869 92.01159733 367.03284869 104.81347656 385.13012695 C105.20889648 385.68418213 105.60431641 386.2382373 106.01171875 386.80908203 C107.9297109 389.48806056 109.86554322 392.15243382 111.82910156 394.7980957 C112.56644531 395.79454102 113.30378906 396.79098633 114.06347656 397.81762695 C114.71574219 398.6890332 115.36800781 399.56043945 116.04003906 400.45825195 C117.43847656 402.56762695 117.43847656 402.56762695 117.43847656 404.56762695 C100.56616436 404.96576915 83.69532873 405.26500798 66.81938553 405.44843388 C58.98231728 405.53589031 51.14817632 405.65496933 43.31298828 405.85009766 C36.4789236 406.02021192 29.64697871 406.12936477 22.81085563 406.16713136 C19.19386601 406.18919642 15.58293641 406.24051588 11.96790314 406.36503792 C-9.97316751 407.09214725 -9.97316751 407.09214725 -15.93405151 402.89847946 C-19.79743879 398.95576623 -22.34941715 394.53547166 -24.6263504 389.5392971 C-25.84150004 386.97733885 -27.42074336 384.80236621 -29.15527344 382.56762695 C-29.64125 381.89795898 -30.12722656 381.22829102 -30.62792969 380.53833008 C-31.10101562 379.88799805 -31.57410156 379.23766602 -32.06152344 378.56762695 C-36.26943686 372.76273434 -40.43748697 366.93239439 -44.56152344 361.06762695 C-50.27925542 352.93965393 -56.08976669 344.88096334 -61.92041016 336.83374023 C-65.17997662 332.33280362 -68.43124964 327.82587261 -71.68408203 323.32006836 C-74.40221867 319.5555513 -77.12233749 315.79249987 -79.84667969 312.0324707 C-85.62862669 304.04787723 -91.36612448 296.03554375 -97.03564453 287.97070312 C-101.22308206 282.02321818 -105.47566034 276.1242741 -109.75878906 270.24536133 C-114.47130248 263.7556972 -118.99146157 257.16882742 -123.56152344 250.56762695 C-123.89152344 301.38762695 -124.22152344 352.20762695 -124.56152344 404.56762695 C-159.54152344 404.56762695 -194.52152344 404.56762695 -230.56152344 404.56762695 C-230.56152344 271.57762695 -230.56152344 138.58762695 -230.56152344 1.56762695 C-195.58152344 1.56762695 -160.60152344 1.56762695 -124.56152344 1.56762695 C-124.23152344 51.39762695 -123.90152344 101.22762695 -123.56152344 152.56762695 C-120.26152344 147.94762695 -116.96152344 143.32762695 -113.56152344 138.56762695 C-111.387772 135.6692917 -109.21385383 132.77106438 -107.03027344 129.88012695 C-104.04580504 125.90083575 -101.15202904 121.85649855 -98.24902344 117.81762695 C-93.62260113 111.38591903 -88.92855457 105.01267741 -84.15869141 98.68676758 C-79.58040101 92.61042811 -75.0700114 86.48524694 -70.56396484 80.35522461 C-67.39954818 76.05319796 -64.21744392 71.76688155 -60.99902344 67.50512695 C-57.41033673 62.74003834 -53.91699997 57.91181417 -50.43652344 53.06762695 C-45.11182715 45.65856909 -39.66651826 38.34803185 -34.1730957 31.06347656 C-29.28500767 24.56780708 -24.5002547 18.00303825 -19.77246094 11.38989258 C-19.27617188 10.69702148 -18.77988281 10.00415039 -18.26855469 9.2902832 C-17.84034424 8.68966064 -17.41213379 8.08903809 -16.97094727 7.47021484 C-16.5058374 6.84236084 -16.04072754 6.21450684 -15.56152344 5.56762695 C-15.11091049 4.71509338 -14.66029755 3.86255981 -14.19602966 2.98419189 C-9.97791798 -0.88497369 -5.52310944 -0.08888123 0 0 Z " fill="#F7F7F5" transform="translate(757.5615234375,299.432373046875)"/>
<path d="M0 0 C1.31239655 -0.00422974 1.31239655 -0.00422974 2.65130615 -0.00854492 C3.61345032 -0.00652069 4.57559448 -0.00449646 5.56689453 -0.00241089 C6.57834534 -0.00416321 7.58979614 -0.00591553 8.63189697 -0.00772095 C11.98785092 -0.01213576 15.34375251 -0.00920276 18.69970703 -0.00582886 C21.02376312 -0.006502 23.34781915 -0.00747212 25.671875 -0.00872803 C30.54769561 -0.0102045 35.42349792 -0.00805206 40.29931641 -0.00338745 C46.5609991 0.0023098 52.82263894 -0.00096948 59.08432007 -0.00695992 C63.88485031 -0.01056689 68.68537033 -0.00942631 73.48590088 -0.00683212 C75.79526779 -0.00616323 78.10463562 -0.00698996 80.41400146 -0.00931168 C83.63686597 -0.01184041 86.85966028 -0.00799443 90.08251953 -0.00241089 C91.52573578 -0.00544724 91.52573578 -0.00544724 92.99810791 -0.00854492 C93.87303894 -0.0057251 94.74796997 -0.00290527 95.64941406 0 C96.4119046 0.00037703 97.17439514 0.00075405 97.95999146 0.0011425 C99.82470703 0.12698364 99.82470703 0.12698364 101.82470703 1.12698364 C101.82470703 49.96698364 101.82470703 98.80698364 101.82470703 149.12698364 C103.47470703 147.80698364 105.12470703 146.48698364 106.82470703 145.12698364 C105.38846608 149.43570651 104.27868138 150.67300929 100.82470703 154.12698364 C100.82470703 103.96698364 100.82470703 53.80698364 100.82470703 2.12698364 C65.84470703 2.12698364 30.86470703 2.12698364 -5.17529297 2.12698364 C-5.17529297 135.11698364 -5.17529297 268.10698364 -5.17529297 405.12698364 C29.80470703 405.12698364 64.78470703 405.12698364 100.82470703 405.12698364 C100.82470703 353.97698364 100.82470703 302.82698364 100.82470703 250.12698364 C102.80470703 252.10698364 102.80470703 252.10698364 104.82470703 254.12698364 C104.49470703 254.78698364 104.16470703 255.44698364 103.82470703 256.12698364 C103.49470703 255.79698364 103.16470703 255.46698364 102.82470703 255.12698364 C102.82047509 255.90427543 102.81624315 256.68156721 102.81188297 257.48241329 C102.70872077 276.36798968 102.60010498 295.25352742 102.48536777 314.13903713 C102.43001493 323.27180622 102.3765296 332.40457921 102.32739258 341.53738403 C102.28457593 349.49458692 102.23830441 357.45176079 102.18782848 365.40891892 C102.16120717 369.62482647 102.13635368 373.8407282 102.11563301 378.05666924 C102.09609826 382.02023368 102.07196418 385.9837428 102.04421616 389.947258 C102.0348289 391.40619213 102.02715969 392.86513843 102.02128792 394.32409096 C102.01305517 396.30747983 101.99818954 398.29083795 101.98292542 400.27418518 C101.97647286 401.38678931 101.97002031 402.49939344 101.96337223 403.64571285 C101.82470703 406.12698364 101.82470703 406.12698364 100.82470703 407.12698364 C99.44827804 407.22452929 98.06689269 407.25329984 96.68701172 407.25396729 C95.79518188 407.25678711 94.90335205 407.25960693 93.98449707 407.26251221 C92.99848511 407.26048798 92.01247314 407.25846375 90.99658203 407.25637817 C89.96416382 407.25813049 88.93174561 407.25988281 87.86804199 407.26168823 C84.43691351 407.26610897 81.00583609 407.26316797 77.57470703 407.25979614 C75.20198558 407.26046912 72.82926419 407.26143909 70.45654297 407.26269531 C65.47639308 407.26417259 60.49626109 407.26201678 55.51611328 407.25735474 C49.11642024 407.25165744 42.71676914 407.25493629 36.31707764 407.2609272 C31.41536134 407.26453202 26.51365507 407.26339459 21.61193848 407.26079941 C19.25150548 407.26012992 16.8910716 407.26095932 14.53063965 407.26327896 C11.23801241 407.26580418 7.94545411 407.26196673 4.65283203 407.25637817 C3.66682007 407.2584024 2.68080811 407.26042664 1.66491699 407.26251221 C0.32717224 407.25828247 0.32717224 407.25828247 -1.03759766 407.25396729 C-1.8170575 407.25359026 -2.59651733 407.25321323 -3.39959717 407.25282478 C-5.17529297 407.12698364 -5.17529297 407.12698364 -6.17529297 406.12698364 C-6.2733126 403.97946716 -6.29900451 401.82865291 -6.2983408 399.67890072 C-6.29949464 398.99395553 -6.30064849 398.30901035 -6.3018373 397.60330924 C-6.30451057 395.27930347 -6.29997601 392.95536526 -6.29554749 390.63136292 C-6.29598304 388.95995555 -6.29685766 387.28854824 -6.29813665 385.61714131 C-6.30038466 381.00175463 -6.29635617 376.38639093 -6.29135859 371.77100718 C-6.28705864 366.80233484 -6.28850019 361.83366391 -6.28926086 356.86499023 C-6.28978639 348.24895862 -6.28663662 339.63293455 -6.28102303 331.01690483 C-6.27291188 318.559419 -6.2702932 306.10193683 -6.26903503 293.64444865 C-6.26684391 273.43525577 -6.26018218 253.22606691 -6.25073242 233.01687622 C-6.24155987 213.38015768 -6.23447827 193.74344022 -6.23022461 174.10671997 C-6.22996189 172.89724949 -6.22969916 171.687779 -6.22942848 170.44165789 C-6.22812348 164.37437968 -6.22685977 158.30710145 -6.22561657 152.23982322 C-6.21524207 101.86887391 -6.19762211 51.49792897 -6.17529297 1.12698364 C-3.8682749 -0.02652539 -2.5662286 0.00126891 0 0 Z " fill="#020202" transform="translate(532.17529296875,298.8730163574219)"/>
<path d="M0 0 C39.93 0 79.86 0 121 0 C119.38262276 3.23475448 118.52370777 4.70572021 116 7 C115.505 5.515 115.505 5.515 115 4 C76.39 4 37.78 4 -2 4 C-1.34 2.68 -0.68 1.36 0 0 Z M-3 4 C-3 4.99 -3 5.98 -3 7 C-3.99 7.495 -3.99 7.495 -5 8 C-4.34 6.68 -3.68 5.36 -3 4 Z " fill="#D1D0D0" transform="translate(746,300)"/>
<path d="M0 0 C0.33 0 0.66 0 1 0 C1.33 3.3 1.66 6.6 2 10 C1.01 9.34 0.02 8.68 -1 8 C-1.25660094 4.92078868 -1.39431504 2.78863007 0 0 Z " fill="#D1D0CF" transform="translate(493,497)"/>
</svg>
